<mxfile host="app.diagrams.net" agent="Mozilla/5.0 (Windows NT 10.0; Win64; x64) AppleWebKit/537.36 (KHTML, like Gecko) Chrome/134.0.0.0 Safari/537.36" version="26.1.1">
  <diagram id="C5RBs43oDa-KdzZeNtuy" name="Page-1">
    <mxGraphModel dx="3492" dy="3490" grid="1" gridSize="10" guides="1" tooltips="1" connect="1" arrows="1" fold="1" page="1" pageScale="1" pageWidth="827" pageHeight="1169" math="0" shadow="0">
      <root>
        <mxCell id="WIyWlLk6GJQsqaUBKTNV-0" />
        <mxCell id="WIyWlLk6GJQsqaUBKTNV-1" parent="WIyWlLk6GJQsqaUBKTNV-0" />
        <mxCell id="NcNX63bowozpFFL_ACmJ-12" value="GameApp" style="swimlane;fontStyle=1;align=center;verticalAlign=top;childLayout=stackLayout;horizontal=1;startSize=26;horizontalStack=0;resizeParent=1;resizeParentMax=0;resizeLast=0;collapsible=1;marginBottom=0;whiteSpace=wrap;html=1;" vertex="1" parent="WIyWlLk6GJQsqaUBKTNV-1">
          <mxGeometry x="340" y="240" width="320" height="398" as="geometry" />
        </mxCell>
        <mxCell id="NcNX63bowozpFFL_ACmJ-35" value="+ ControllerManager : ControllerManager" style="text;strokeColor=none;fillColor=none;align=left;verticalAlign=top;spacingLeft=4;spacingRight=4;overflow=hidden;rotatable=0;points=[[0,0.5],[1,0.5]];portConstraint=eastwest;whiteSpace=wrap;html=1;" vertex="1" parent="NcNX63bowozpFFL_ACmJ-12">
          <mxGeometry y="26" width="320" height="26" as="geometry" />
        </mxCell>
        <mxCell id="NcNX63bowozpFFL_ACmJ-36" value="+ SoundManager : SoundManager" style="text;strokeColor=none;fillColor=none;align=left;verticalAlign=top;spacingLeft=4;spacingRight=4;overflow=hidden;rotatable=0;points=[[0,0.5],[1,0.5]];portConstraint=eastwest;whiteSpace=wrap;html=1;" vertex="1" parent="NcNX63bowozpFFL_ACmJ-12">
          <mxGeometry y="52" width="320" height="26" as="geometry" />
        </mxCell>
        <mxCell id="NcNX63bowozpFFL_ACmJ-37" value="+ ViewManager : ViewManager" style="text;strokeColor=none;fillColor=none;align=left;verticalAlign=top;spacingLeft=4;spacingRight=4;overflow=hidden;rotatable=0;points=[[0,0.5],[1,0.5]];portConstraint=eastwest;whiteSpace=wrap;html=1;" vertex="1" parent="NcNX63bowozpFFL_ACmJ-12">
          <mxGeometry y="78" width="320" height="26" as="geometry" />
        </mxCell>
        <mxCell id="NcNX63bowozpFFL_ACmJ-38" value="+ CameraManager : CameraManager" style="text;strokeColor=none;fillColor=none;align=left;verticalAlign=top;spacingLeft=4;spacingRight=4;overflow=hidden;rotatable=0;points=[[0,0.5],[1,0.5]];portConstraint=eastwest;whiteSpace=wrap;html=1;" vertex="1" parent="NcNX63bowozpFFL_ACmJ-12">
          <mxGeometry y="104" width="320" height="26" as="geometry" />
        </mxCell>
        <mxCell id="NcNX63bowozpFFL_ACmJ-39" value="+ MessageCenter : MsgCenter" style="text;strokeColor=none;fillColor=none;align=left;verticalAlign=top;spacingLeft=4;spacingRight=4;overflow=hidden;rotatable=0;points=[[0,0.5],[1,0.5]];portConstraint=eastwest;whiteSpace=wrap;html=1;" vertex="1" parent="NcNX63bowozpFFL_ACmJ-12">
          <mxGeometry y="130" width="320" height="26" as="geometry" />
        </mxCell>
        <mxCell id="NcNX63bowozpFFL_ACmJ-40" value="+ TimerManager : TimerManager" style="text;strokeColor=none;fillColor=none;align=left;verticalAlign=top;spacingLeft=4;spacingRight=4;overflow=hidden;rotatable=0;points=[[0,0.5],[1,0.5]];portConstraint=eastwest;whiteSpace=wrap;html=1;" vertex="1" parent="NcNX63bowozpFFL_ACmJ-12">
          <mxGeometry y="156" width="320" height="26" as="geometry" />
        </mxCell>
        <mxCell id="NcNX63bowozpFFL_ACmJ-41" value="+ FightWorldManager : FightManager" style="text;strokeColor=none;fillColor=none;align=left;verticalAlign=top;spacingLeft=4;spacingRight=4;overflow=hidden;rotatable=0;points=[[0,0.5],[1,0.5]];portConstraint=eastwest;whiteSpace=wrap;html=1;" vertex="1" parent="NcNX63bowozpFFL_ACmJ-12">
          <mxGeometry y="182" width="320" height="26" as="geometry" />
        </mxCell>
        <mxCell id="NcNX63bowozpFFL_ACmJ-42" value="+ MapManager : MapManager" style="text;strokeColor=none;fillColor=none;align=left;verticalAlign=top;spacingLeft=4;spacingRight=4;overflow=hidden;rotatable=0;points=[[0,0.5],[1,0.5]];portConstraint=eastwest;whiteSpace=wrap;html=1;" vertex="1" parent="NcNX63bowozpFFL_ACmJ-12">
          <mxGeometry y="208" width="320" height="26" as="geometry" />
        </mxCell>
        <mxCell id="NcNX63bowozpFFL_ACmJ-43" value="+ GameDataManager : GameDataManager" style="text;strokeColor=none;fillColor=none;align=left;verticalAlign=top;spacingLeft=4;spacingRight=4;overflow=hidden;rotatable=0;points=[[0,0.5],[1,0.5]];portConstraint=eastwest;whiteSpace=wrap;html=1;" vertex="1" parent="NcNX63bowozpFFL_ACmJ-12">
          <mxGeometry y="234" width="320" height="26" as="geometry" />
        </mxCell>
        <mxCell id="NcNX63bowozpFFL_ACmJ-44" value="+ UserInputManager : UserInputManager" style="text;strokeColor=none;fillColor=none;align=left;verticalAlign=top;spacingLeft=4;spacingRight=4;overflow=hidden;rotatable=0;points=[[0,0.5],[1,0.5]];portConstraint=eastwest;whiteSpace=wrap;html=1;" vertex="1" parent="NcNX63bowozpFFL_ACmJ-12">
          <mxGeometry y="260" width="320" height="26" as="geometry" />
        </mxCell>
        <mxCell id="NcNX63bowozpFFL_ACmJ-45" value="+ CommandManager : CommandManager" style="text;strokeColor=none;fillColor=none;align=left;verticalAlign=top;spacingLeft=4;spacingRight=4;overflow=hidden;rotatable=0;points=[[0,0.5],[1,0.5]];portConstraint=eastwest;whiteSpace=wrap;html=1;" vertex="1" parent="NcNX63bowozpFFL_ACmJ-12">
          <mxGeometry y="286" width="320" height="26" as="geometry" />
        </mxCell>
        <mxCell id="NcNX63bowozpFFL_ACmJ-13" value="+ SkillManager : SkillManager" style="text;strokeColor=none;fillColor=none;align=left;verticalAlign=top;spacingLeft=4;spacingRight=4;overflow=hidden;rotatable=0;points=[[0,0.5],[1,0.5]];portConstraint=eastwest;whiteSpace=wrap;html=1;" vertex="1" parent="NcNX63bowozpFFL_ACmJ-12">
          <mxGeometry y="312" width="320" height="26" as="geometry" />
        </mxCell>
        <mxCell id="NcNX63bowozpFFL_ACmJ-14" value="" style="line;strokeWidth=1;fillColor=none;align=left;verticalAlign=middle;spacingTop=-1;spacingLeft=3;spacingRight=3;rotatable=0;labelPosition=right;points=[];portConstraint=eastwest;strokeColor=inherit;" vertex="1" parent="NcNX63bowozpFFL_ACmJ-12">
          <mxGeometry y="338" width="320" height="8" as="geometry" />
        </mxCell>
        <mxCell id="NcNX63bowozpFFL_ACmJ-46" value="+ Init(): void" style="text;strokeColor=none;fillColor=none;align=left;verticalAlign=top;spacingLeft=4;spacingRight=4;overflow=hidden;rotatable=0;points=[[0,0.5],[1,0.5]];portConstraint=eastwest;whiteSpace=wrap;html=1;" vertex="1" parent="NcNX63bowozpFFL_ACmJ-12">
          <mxGeometry y="346" width="320" height="26" as="geometry" />
        </mxCell>
        <mxCell id="NcNX63bowozpFFL_ACmJ-15" value="+ Update(float): void" style="text;strokeColor=none;fillColor=none;align=left;verticalAlign=top;spacingLeft=4;spacingRight=4;overflow=hidden;rotatable=0;points=[[0,0.5],[1,0.5]];portConstraint=eastwest;whiteSpace=wrap;html=1;" vertex="1" parent="NcNX63bowozpFFL_ACmJ-12">
          <mxGeometry y="372" width="320" height="26" as="geometry" />
        </mxCell>
        <mxCell id="NcNX63bowozpFFL_ACmJ-52" value="SoundManager" style="swimlane;fontStyle=1;align=center;verticalAlign=top;childLayout=stackLayout;horizontal=1;startSize=26;horizontalStack=0;resizeParent=1;resizeParentMax=0;resizeLast=0;collapsible=1;marginBottom=0;whiteSpace=wrap;html=1;" vertex="1" parent="WIyWlLk6GJQsqaUBKTNV-1">
          <mxGeometry x="-213" y="-470" width="310" height="335" as="geometry" />
        </mxCell>
        <mxCell id="NcNX63bowozpFFL_ACmJ-56" value="- bgmSource : AudioSource&amp;nbsp;" style="text;strokeColor=none;fillColor=none;align=left;verticalAlign=top;spacingLeft=4;spacingRight=4;overflow=hidden;rotatable=0;points=[[0,0.5],[1,0.5]];portConstraint=eastwest;whiteSpace=wrap;html=1;" vertex="1" parent="NcNX63bowozpFFL_ACmJ-52">
          <mxGeometry y="26" width="310" height="26" as="geometry" />
        </mxCell>
        <mxCell id="NcNX63bowozpFFL_ACmJ-57" value="- clips : Dictionary&amp;lt;string, AudioClip&amp;gt;" style="text;strokeColor=none;fillColor=none;align=left;verticalAlign=top;spacingLeft=4;spacingRight=4;overflow=hidden;rotatable=0;points=[[0,0.5],[1,0.5]];portConstraint=eastwest;whiteSpace=wrap;html=1;" vertex="1" parent="NcNX63bowozpFFL_ACmJ-52">
          <mxGeometry y="52" width="310" height="26" as="geometry" />
        </mxCell>
        <mxCell id="NcNX63bowozpFFL_ACmJ-58" value="- isStop : bool" style="text;strokeColor=none;fillColor=none;align=left;verticalAlign=top;spacingLeft=4;spacingRight=4;overflow=hidden;rotatable=0;points=[[0,0.5],[1,0.5]];portConstraint=eastwest;whiteSpace=wrap;html=1;" vertex="1" parent="NcNX63bowozpFFL_ACmJ-52">
          <mxGeometry y="78" width="310" height="26" as="geometry" />
        </mxCell>
        <mxCell id="NcNX63bowozpFFL_ACmJ-61" value="- bgmVolume : float" style="text;strokeColor=none;fillColor=none;align=left;verticalAlign=top;spacingLeft=4;spacingRight=4;overflow=hidden;rotatable=0;points=[[0,0.5],[1,0.5]];portConstraint=eastwest;whiteSpace=wrap;html=1;" vertex="1" parent="NcNX63bowozpFFL_ACmJ-52">
          <mxGeometry y="104" width="310" height="26" as="geometry" />
        </mxCell>
        <mxCell id="NcNX63bowozpFFL_ACmJ-53" value="- effectVolume : float" style="text;strokeColor=none;fillColor=none;align=left;verticalAlign=top;spacingLeft=4;spacingRight=4;overflow=hidden;rotatable=0;points=[[0,0.5],[1,0.5]];portConstraint=eastwest;whiteSpace=wrap;html=1;" vertex="1" parent="NcNX63bowozpFFL_ACmJ-52">
          <mxGeometry y="130" width="310" height="26" as="geometry" />
        </mxCell>
        <mxCell id="NcNX63bowozpFFL_ACmJ-54" value="" style="line;strokeWidth=1;fillColor=none;align=left;verticalAlign=middle;spacingTop=-1;spacingLeft=3;spacingRight=3;rotatable=0;labelPosition=right;points=[];portConstraint=eastwest;strokeColor=inherit;" vertex="1" parent="NcNX63bowozpFFL_ACmJ-52">
          <mxGeometry y="156" width="310" height="8" as="geometry" />
        </mxCell>
        <mxCell id="NcNX63bowozpFFL_ACmJ-60" value="+ isStop(bool) : void&lt;div&gt;&lt;br&gt;&lt;/div&gt;" style="text;strokeColor=none;fillColor=none;align=left;verticalAlign=top;spacingLeft=4;spacingRight=4;overflow=hidden;rotatable=0;points=[[0,0.5],[1,0.5]];portConstraint=eastwest;whiteSpace=wrap;html=1;" vertex="1" parent="NcNX63bowozpFFL_ACmJ-52">
          <mxGeometry y="164" width="310" height="26" as="geometry" />
        </mxCell>
        <mxCell id="NcNX63bowozpFFL_ACmJ-63" value="+ BgmVolume(float) : void" style="text;strokeColor=none;fillColor=none;align=left;verticalAlign=top;spacingLeft=4;spacingRight=4;overflow=hidden;rotatable=0;points=[[0,0.5],[1,0.5]];portConstraint=eastwest;whiteSpace=wrap;html=1;" vertex="1" parent="NcNX63bowozpFFL_ACmJ-52">
          <mxGeometry y="190" width="310" height="25" as="geometry" />
        </mxCell>
        <mxCell id="NcNX63bowozpFFL_ACmJ-64" value="+ EffectVolume(float) : void" style="text;strokeColor=none;fillColor=none;align=left;verticalAlign=top;spacingLeft=4;spacingRight=4;overflow=hidden;rotatable=0;points=[[0,0.5],[1,0.5]];portConstraint=eastwest;whiteSpace=wrap;html=1;" vertex="1" parent="NcNX63bowozpFFL_ACmJ-52">
          <mxGeometry y="215" width="310" height="30" as="geometry" />
        </mxCell>
        <mxCell id="NcNX63bowozpFFL_ACmJ-65" value="+ SoundManager() : void" style="text;strokeColor=none;fillColor=none;align=left;verticalAlign=top;spacingLeft=4;spacingRight=4;overflow=hidden;rotatable=0;points=[[0,0.5],[1,0.5]];portConstraint=eastwest;whiteSpace=wrap;html=1;" vertex="1" parent="NcNX63bowozpFFL_ACmJ-52">
          <mxGeometry y="245" width="310" height="30" as="geometry" />
        </mxCell>
        <mxCell id="NcNX63bowozpFFL_ACmJ-66" value="+ PlayBGM(string) : void" style="text;strokeColor=none;fillColor=none;align=left;verticalAlign=top;spacingLeft=4;spacingRight=4;overflow=hidden;rotatable=0;points=[[0,0.5],[1,0.5]];portConstraint=eastwest;whiteSpace=wrap;html=1;" vertex="1" parent="NcNX63bowozpFFL_ACmJ-52">
          <mxGeometry y="275" width="310" height="30" as="geometry" />
        </mxCell>
        <mxCell id="NcNX63bowozpFFL_ACmJ-55" value="+ PlayEffect(string,Vector3) : void" style="text;strokeColor=none;fillColor=none;align=left;verticalAlign=top;spacingLeft=4;spacingRight=4;overflow=hidden;rotatable=0;points=[[0,0.5],[1,0.5]];portConstraint=eastwest;whiteSpace=wrap;html=1;" vertex="1" parent="NcNX63bowozpFFL_ACmJ-52">
          <mxGeometry y="305" width="310" height="30" as="geometry" />
        </mxCell>
        <mxCell id="NcNX63bowozpFFL_ACmJ-68" value="" style="endArrow=diamondThin;endFill=1;endSize=24;html=1;rounded=0;exitX=0;exitY=0.692;exitDx=0;exitDy=0;exitPerimeter=0;entryX=1.002;entryY=0.05;entryDx=0;entryDy=0;entryPerimeter=0;" edge="1" parent="WIyWlLk6GJQsqaUBKTNV-1" source="NcNX63bowozpFFL_ACmJ-36" target="NcNX63bowozpFFL_ACmJ-52">
          <mxGeometry width="160" relative="1" as="geometry">
            <mxPoint x="270" y="410" as="sourcePoint" />
            <mxPoint x="430" y="410" as="targetPoint" />
          </mxGeometry>
        </mxCell>
        <mxCell id="NcNX63bowozpFFL_ACmJ-70" value="ControllerManage&lt;span style=&quot;white-space: pre;&quot;&gt;&#x9;&lt;/span&gt;" style="swimlane;fontStyle=1;align=center;verticalAlign=top;childLayout=stackLayout;horizontal=1;startSize=26;horizontalStack=0;resizeParent=1;resizeParentMax=0;resizeLast=0;collapsible=1;marginBottom=0;whiteSpace=wrap;html=1;" vertex="1" parent="WIyWlLk6GJQsqaUBKTNV-1">
          <mxGeometry x="-213" y="-790" width="310" height="294" as="geometry" />
        </mxCell>
        <mxCell id="NcNX63bowozpFFL_ACmJ-74" value="- _modules : Dictionary&amp;lt;int, BaseController&amp;gt;" style="text;strokeColor=none;fillColor=none;align=left;verticalAlign=top;spacingLeft=4;spacingRight=4;overflow=hidden;rotatable=0;points=[[0,0.5],[1,0.5]];portConstraint=eastwest;whiteSpace=wrap;html=1;" vertex="1" parent="NcNX63bowozpFFL_ACmJ-70">
          <mxGeometry y="26" width="310" height="26" as="geometry" />
        </mxCell>
        <mxCell id="NcNX63bowozpFFL_ACmJ-72" value="" style="line;strokeWidth=1;fillColor=none;align=left;verticalAlign=middle;spacingTop=-1;spacingLeft=3;spacingRight=3;rotatable=0;labelPosition=right;points=[];portConstraint=eastwest;strokeColor=inherit;" vertex="1" parent="NcNX63bowozpFFL_ACmJ-70">
          <mxGeometry y="52" width="310" height="8" as="geometry" />
        </mxCell>
        <mxCell id="NcNX63bowozpFFL_ACmJ-75" value="+ ControllerManager(): void" style="text;strokeColor=none;fillColor=none;align=left;verticalAlign=top;spacingLeft=4;spacingRight=4;overflow=hidden;rotatable=0;points=[[0,0.5],[1,0.5]];portConstraint=eastwest;whiteSpace=wrap;html=1;" vertex="1" parent="NcNX63bowozpFFL_ACmJ-70">
          <mxGeometry y="60" width="310" height="26" as="geometry" />
        </mxCell>
        <mxCell id="NcNX63bowozpFFL_ACmJ-76" value="+ Register(ControllerType, BaseController): void" style="text;strokeColor=none;fillColor=none;align=left;verticalAlign=top;spacingLeft=4;spacingRight=4;overflow=hidden;rotatable=0;points=[[0,0.5],[1,0.5]];portConstraint=eastwest;whiteSpace=wrap;html=1;" vertex="1" parent="NcNX63bowozpFFL_ACmJ-70">
          <mxGeometry y="86" width="310" height="26" as="geometry" />
        </mxCell>
        <mxCell id="NcNX63bowozpFFL_ACmJ-84" value="+ Register(int, BaseController): void" style="text;strokeColor=none;fillColor=none;align=left;verticalAlign=top;spacingLeft=4;spacingRight=4;overflow=hidden;rotatable=0;points=[[0,0.5],[1,0.5]];portConstraint=eastwest;whiteSpace=wrap;html=1;" vertex="1" parent="NcNX63bowozpFFL_ACmJ-70">
          <mxGeometry y="112" width="310" height="26" as="geometry" />
        </mxCell>
        <mxCell id="NcNX63bowozpFFL_ACmJ-87" value="+ InitAllModules(): void" style="text;strokeColor=none;fillColor=none;align=left;verticalAlign=top;spacingLeft=4;spacingRight=4;overflow=hidden;rotatable=0;points=[[0,0.5],[1,0.5]];portConstraint=eastwest;whiteSpace=wrap;html=1;" vertex="1" parent="NcNX63bowozpFFL_ACmJ-70">
          <mxGeometry y="138" width="310" height="26" as="geometry" />
        </mxCell>
        <mxCell id="NcNX63bowozpFFL_ACmJ-88" value="+ UnRegister(int): void" style="text;strokeColor=none;fillColor=none;align=left;verticalAlign=top;spacingLeft=4;spacingRight=4;overflow=hidden;rotatable=0;points=[[0,0.5],[1,0.5]];portConstraint=eastwest;whiteSpace=wrap;html=1;" vertex="1" parent="NcNX63bowozpFFL_ACmJ-70">
          <mxGeometry y="164" width="310" height="26" as="geometry" />
        </mxCell>
        <mxCell id="NcNX63bowozpFFL_ACmJ-89" value="+ Clear(): void" style="text;strokeColor=none;fillColor=none;align=left;verticalAlign=top;spacingLeft=4;spacingRight=4;overflow=hidden;rotatable=0;points=[[0,0.5],[1,0.5]];portConstraint=eastwest;whiteSpace=wrap;html=1;" vertex="1" parent="NcNX63bowozpFFL_ACmJ-70">
          <mxGeometry y="190" width="310" height="26" as="geometry" />
        </mxCell>
        <mxCell id="NcNX63bowozpFFL_ACmJ-90" value="+ ClearAllModules(): void" style="text;strokeColor=none;fillColor=none;align=left;verticalAlign=top;spacingLeft=4;spacingRight=4;overflow=hidden;rotatable=0;points=[[0,0.5],[1,0.5]];portConstraint=eastwest;whiteSpace=wrap;html=1;" vertex="1" parent="NcNX63bowozpFFL_ACmJ-70">
          <mxGeometry y="216" width="310" height="26" as="geometry" />
        </mxCell>
        <mxCell id="NcNX63bowozpFFL_ACmJ-91" value="+ ApplyFunc(int,string,System.Object[]): void" style="text;strokeColor=none;fillColor=none;align=left;verticalAlign=top;spacingLeft=4;spacingRight=4;overflow=hidden;rotatable=0;points=[[0,0.5],[1,0.5]];portConstraint=eastwest;whiteSpace=wrap;html=1;" vertex="1" parent="NcNX63bowozpFFL_ACmJ-70">
          <mxGeometry y="242" width="310" height="26" as="geometry" />
        </mxCell>
        <mxCell id="NcNX63bowozpFFL_ACmJ-73" value="+ GetControllerModel(int): BaseModel" style="text;strokeColor=none;fillColor=none;align=left;verticalAlign=top;spacingLeft=4;spacingRight=4;overflow=hidden;rotatable=0;points=[[0,0.5],[1,0.5]];portConstraint=eastwest;whiteSpace=wrap;html=1;" vertex="1" parent="NcNX63bowozpFFL_ACmJ-70">
          <mxGeometry y="268" width="310" height="26" as="geometry" />
        </mxCell>
        <mxCell id="NcNX63bowozpFFL_ACmJ-79" value="Use" style="endArrow=open;endSize=12;dashed=1;html=1;rounded=0;exitX=1.013;exitY=0.632;exitDx=0;exitDy=0;exitPerimeter=0;entryX=0.997;entryY=0.308;entryDx=0;entryDy=0;entryPerimeter=0;" edge="1" parent="NcNX63bowozpFFL_ACmJ-70" source="NcNX63bowozpFFL_ACmJ-76" target="NcNX63bowozpFFL_ACmJ-84">
          <mxGeometry width="160" relative="1" as="geometry">
            <mxPoint x="250" y="120" as="sourcePoint" />
            <mxPoint x="410" y="120" as="targetPoint" />
            <Array as="points">
              <mxPoint x="340" y="110" />
            </Array>
          </mxGeometry>
        </mxCell>
        <mxCell id="NcNX63bowozpFFL_ACmJ-93" value="" style="endArrow=diamondThin;endFill=1;endSize=24;html=1;rounded=0;exitX=0;exitY=0.5;exitDx=0;exitDy=0;entryX=1.002;entryY=0.044;entryDx=0;entryDy=0;entryPerimeter=0;" edge="1" parent="WIyWlLk6GJQsqaUBKTNV-1" source="NcNX63bowozpFFL_ACmJ-35" target="NcNX63bowozpFFL_ACmJ-70">
          <mxGeometry width="160" relative="1" as="geometry">
            <mxPoint x="410" y="20" as="sourcePoint" />
            <mxPoint x="570" y="20" as="targetPoint" />
          </mxGeometry>
        </mxCell>
        <mxCell id="NcNX63bowozpFFL_ACmJ-94" value="BaseController" style="swimlane;fontStyle=1;align=center;verticalAlign=top;childLayout=stackLayout;horizontal=1;startSize=26;horizontalStack=0;resizeParent=1;resizeParentMax=0;resizeLast=0;collapsible=1;marginBottom=0;whiteSpace=wrap;html=1;" vertex="1" parent="WIyWlLk6GJQsqaUBKTNV-1">
          <mxGeometry x="-833" y="-940" width="390" height="696" as="geometry" />
        </mxCell>
        <mxCell id="NcNX63bowozpFFL_ACmJ-99" value="+ message: Dictionary&amp;lt;string, System.Action&amp;lt;object[]&amp;gt;&amp;gt;" style="text;strokeColor=none;fillColor=none;align=left;verticalAlign=top;spacingLeft=4;spacingRight=4;overflow=hidden;rotatable=0;points=[[0,0.5],[1,0.5]];portConstraint=eastwest;whiteSpace=wrap;html=1;" vertex="1" parent="NcNX63bowozpFFL_ACmJ-94">
          <mxGeometry y="26" width="390" height="26" as="geometry" />
        </mxCell>
        <mxCell id="NcNX63bowozpFFL_ACmJ-95" value="# model: BaseModel" style="text;strokeColor=none;fillColor=none;align=left;verticalAlign=top;spacingLeft=4;spacingRight=4;overflow=hidden;rotatable=0;points=[[0,0.5],[1,0.5]];portConstraint=eastwest;whiteSpace=wrap;html=1;" vertex="1" parent="NcNX63bowozpFFL_ACmJ-94">
          <mxGeometry y="52" width="390" height="26" as="geometry" />
        </mxCell>
        <mxCell id="NcNX63bowozpFFL_ACmJ-96" value="" style="line;strokeWidth=1;fillColor=none;align=left;verticalAlign=middle;spacingTop=-1;spacingLeft=3;spacingRight=3;rotatable=0;labelPosition=right;points=[];portConstraint=eastwest;strokeColor=inherit;" vertex="1" parent="NcNX63bowozpFFL_ACmJ-94">
          <mxGeometry y="78" width="390" height="8" as="geometry" />
        </mxCell>
        <mxCell id="NcNX63bowozpFFL_ACmJ-103" value="+ BaseController(): void" style="text;strokeColor=none;fillColor=none;align=left;verticalAlign=top;spacingLeft=4;spacingRight=4;overflow=hidden;rotatable=0;points=[[0,0.5],[1,0.5]];portConstraint=eastwest;whiteSpace=wrap;html=1;" vertex="1" parent="NcNX63bowozpFFL_ACmJ-94">
          <mxGeometry y="86" width="390" height="30" as="geometry" />
        </mxCell>
        <mxCell id="NcNX63bowozpFFL_ACmJ-104" value="&lt;i&gt;+ Init(): void&lt;/i&gt;" style="text;strokeColor=none;fillColor=none;align=left;verticalAlign=top;spacingLeft=4;spacingRight=4;overflow=hidden;rotatable=0;points=[[0,0.5],[1,0.5]];portConstraint=eastwest;whiteSpace=wrap;html=1;" vertex="1" parent="NcNX63bowozpFFL_ACmJ-94">
          <mxGeometry y="116" width="390" height="30" as="geometry" />
        </mxCell>
        <mxCell id="NcNX63bowozpFFL_ACmJ-105" value="&lt;i&gt;+ OnLoadView(IBaseView): void&lt;/i&gt;" style="text;strokeColor=none;fillColor=none;align=left;verticalAlign=top;spacingLeft=4;spacingRight=4;overflow=hidden;rotatable=0;points=[[0,0.5],[1,0.5]];portConstraint=eastwest;whiteSpace=wrap;html=1;" vertex="1" parent="NcNX63bowozpFFL_ACmJ-94">
          <mxGeometry y="146" width="390" height="30" as="geometry" />
        </mxCell>
        <mxCell id="NcNX63bowozpFFL_ACmJ-106" value="&lt;i&gt;+ OpenView(IBaseView): void&lt;/i&gt;" style="text;strokeColor=none;fillColor=none;align=left;verticalAlign=top;spacingLeft=4;spacingRight=4;overflow=hidden;rotatable=0;points=[[0,0.5],[1,0.5]];portConstraint=eastwest;whiteSpace=wrap;html=1;" vertex="1" parent="NcNX63bowozpFFL_ACmJ-94">
          <mxGeometry y="176" width="390" height="30" as="geometry" />
        </mxCell>
        <mxCell id="NcNX63bowozpFFL_ACmJ-107" value="&lt;i&gt;+ CloseView(IBaseView): void&lt;/i&gt;" style="text;strokeColor=none;fillColor=none;align=left;verticalAlign=top;spacingLeft=4;spacingRight=4;overflow=hidden;rotatable=0;points=[[0,0.5],[1,0.5]];portConstraint=eastwest;whiteSpace=wrap;html=1;" vertex="1" parent="NcNX63bowozpFFL_ACmJ-94">
          <mxGeometry y="206" width="390" height="30" as="geometry" />
        </mxCell>
        <mxCell id="NcNX63bowozpFFL_ACmJ-109" value="&lt;span style=&quot;font-style: normal;&quot;&gt;+ RegisterFunc(string, System.Action&amp;lt;object[]&amp;gt;): void&lt;/span&gt;" style="text;strokeColor=none;fillColor=none;align=left;verticalAlign=top;spacingLeft=4;spacingRight=4;overflow=hidden;rotatable=0;points=[[0,0.5],[1,0.5]];portConstraint=eastwest;whiteSpace=wrap;html=1;fontStyle=2" vertex="1" parent="NcNX63bowozpFFL_ACmJ-94">
          <mxGeometry y="236" width="390" height="30" as="geometry" />
        </mxCell>
        <mxCell id="NcNX63bowozpFFL_ACmJ-110" value="&lt;span style=&quot;font-style: normal;&quot;&gt;+ UnRegisterFunc(string): void&lt;/span&gt;" style="text;strokeColor=none;fillColor=none;align=left;verticalAlign=top;spacingLeft=4;spacingRight=4;overflow=hidden;rotatable=0;points=[[0,0.5],[1,0.5]];portConstraint=eastwest;whiteSpace=wrap;html=1;fontStyle=2" vertex="1" parent="NcNX63bowozpFFL_ACmJ-94">
          <mxGeometry y="266" width="390" height="30" as="geometry" />
        </mxCell>
        <mxCell id="NcNX63bowozpFFL_ACmJ-111" value="&lt;span style=&quot;font-style: normal;&quot;&gt;+ ApplyFunc(string, params object[]): void&lt;/span&gt;" style="text;strokeColor=none;fillColor=none;align=left;verticalAlign=top;spacingLeft=4;spacingRight=4;overflow=hidden;rotatable=0;points=[[0,0.5],[1,0.5]];portConstraint=eastwest;whiteSpace=wrap;html=1;fontStyle=2" vertex="1" parent="NcNX63bowozpFFL_ACmJ-94">
          <mxGeometry y="296" width="390" height="30" as="geometry" />
        </mxCell>
        <mxCell id="NcNX63bowozpFFL_ACmJ-112" value="&lt;span style=&quot;font-style: normal;&quot;&gt;+ ApplyControllerFunc(int, string, params object[]): void&lt;/span&gt;" style="text;strokeColor=none;fillColor=none;align=left;verticalAlign=top;spacingLeft=4;spacingRight=4;overflow=hidden;rotatable=0;points=[[0,0.5],[1,0.5]];portConstraint=eastwest;whiteSpace=wrap;html=1;fontStyle=2" vertex="1" parent="NcNX63bowozpFFL_ACmJ-94">
          <mxGeometry y="326" width="390" height="30" as="geometry" />
        </mxCell>
        <mxCell id="NcNX63bowozpFFL_ACmJ-115" value="&lt;span style=&quot;font-style: normal;&quot;&gt;+ ApplyControllerFunc(ControllerType, string, params object[]): void&lt;/span&gt;" style="text;strokeColor=none;fillColor=none;align=left;verticalAlign=top;spacingLeft=4;spacingRight=4;overflow=hidden;rotatable=0;points=[[0,0.5],[1,0.5]];portConstraint=eastwest;whiteSpace=wrap;html=1;fontStyle=2" vertex="1" parent="NcNX63bowozpFFL_ACmJ-94">
          <mxGeometry y="356" width="390" height="34" as="geometry" />
        </mxCell>
        <mxCell id="NcNX63bowozpFFL_ACmJ-116" value="&lt;span style=&quot;font-style: normal;&quot;&gt;+ SetModel(BaseModel): void&lt;/span&gt;" style="text;strokeColor=none;fillColor=none;align=left;verticalAlign=top;spacingLeft=4;spacingRight=4;overflow=hidden;rotatable=0;points=[[0,0.5],[1,0.5]];portConstraint=eastwest;whiteSpace=wrap;html=1;fontStyle=2" vertex="1" parent="NcNX63bowozpFFL_ACmJ-94">
          <mxGeometry y="390" width="390" height="34" as="geometry" />
        </mxCell>
        <mxCell id="NcNX63bowozpFFL_ACmJ-117" value="&lt;span style=&quot;font-style: normal;&quot;&gt;+ GetModel():&amp;nbsp;BaseModel&lt;/span&gt;" style="text;strokeColor=none;fillColor=none;align=left;verticalAlign=top;spacingLeft=4;spacingRight=4;overflow=hidden;rotatable=0;points=[[0,0.5],[1,0.5]];portConstraint=eastwest;whiteSpace=wrap;html=1;fontStyle=2" vertex="1" parent="NcNX63bowozpFFL_ACmJ-94">
          <mxGeometry y="424" width="390" height="34" as="geometry" />
        </mxCell>
        <mxCell id="NcNX63bowozpFFL_ACmJ-118" value="&lt;span style=&quot;font-style: normal;&quot;&gt;+&amp;nbsp;T GetModel&amp;lt;T&amp;gt;() where T : BaseModel&lt;/span&gt;" style="text;strokeColor=none;fillColor=none;align=left;verticalAlign=top;spacingLeft=4;spacingRight=4;overflow=hidden;rotatable=0;points=[[0,0.5],[1,0.5]];portConstraint=eastwest;whiteSpace=wrap;html=1;fontStyle=2" vertex="1" parent="NcNX63bowozpFFL_ACmJ-94">
          <mxGeometry y="458" width="390" height="34" as="geometry" />
        </mxCell>
        <mxCell id="NcNX63bowozpFFL_ACmJ-119" value="&lt;span style=&quot;font-style: normal;&quot;&gt;+ GetControllerModel(int): BaseModel&lt;/span&gt;" style="text;strokeColor=none;fillColor=none;align=left;verticalAlign=top;spacingLeft=4;spacingRight=4;overflow=hidden;rotatable=0;points=[[0,0.5],[1,0.5]];portConstraint=eastwest;whiteSpace=wrap;html=1;fontStyle=2" vertex="1" parent="NcNX63bowozpFFL_ACmJ-94">
          <mxGeometry y="492" width="390" height="34" as="geometry" />
        </mxCell>
        <mxCell id="NcNX63bowozpFFL_ACmJ-120" value="+&amp;nbsp;Destroy(): void" style="text;strokeColor=none;fillColor=none;align=left;verticalAlign=top;spacingLeft=4;spacingRight=4;overflow=hidden;rotatable=0;points=[[0,0.5],[1,0.5]];portConstraint=eastwest;whiteSpace=wrap;html=1;fontStyle=2" vertex="1" parent="NcNX63bowozpFFL_ACmJ-94">
          <mxGeometry y="526" width="390" height="34" as="geometry" />
        </mxCell>
        <mxCell id="NcNX63bowozpFFL_ACmJ-121" value="+&amp;nbsp;InitModuleEvent(): void" style="text;strokeColor=none;fillColor=none;align=left;verticalAlign=top;spacingLeft=4;spacingRight=4;overflow=hidden;rotatable=0;points=[[0,0.5],[1,0.5]];portConstraint=eastwest;whiteSpace=wrap;html=1;fontStyle=2" vertex="1" parent="NcNX63bowozpFFL_ACmJ-94">
          <mxGeometry y="560" width="390" height="34" as="geometry" />
        </mxCell>
        <mxCell id="NcNX63bowozpFFL_ACmJ-122" value="+&amp;nbsp;RemoveModuleEvent(): void" style="text;strokeColor=none;fillColor=none;align=left;verticalAlign=top;spacingLeft=4;spacingRight=4;overflow=hidden;rotatable=0;points=[[0,0.5],[1,0.5]];portConstraint=eastwest;whiteSpace=wrap;html=1;fontStyle=2" vertex="1" parent="NcNX63bowozpFFL_ACmJ-94">
          <mxGeometry y="594" width="390" height="34" as="geometry" />
        </mxCell>
        <mxCell id="NcNX63bowozpFFL_ACmJ-123" value="+&amp;nbsp;InitGlobalEvent(): void" style="text;strokeColor=none;fillColor=none;align=left;verticalAlign=top;spacingLeft=4;spacingRight=4;overflow=hidden;rotatable=0;points=[[0,0.5],[1,0.5]];portConstraint=eastwest;whiteSpace=wrap;html=1;fontStyle=2" vertex="1" parent="NcNX63bowozpFFL_ACmJ-94">
          <mxGeometry y="628" width="390" height="34" as="geometry" />
        </mxCell>
        <mxCell id="NcNX63bowozpFFL_ACmJ-97" value="+&amp;nbsp;RemoveGlobalEvent(): void" style="text;strokeColor=none;fillColor=none;align=left;verticalAlign=top;spacingLeft=4;spacingRight=4;overflow=hidden;rotatable=0;points=[[0,0.5],[1,0.5]];portConstraint=eastwest;whiteSpace=wrap;html=1;fontStyle=2" vertex="1" parent="NcNX63bowozpFFL_ACmJ-94">
          <mxGeometry y="662" width="390" height="34" as="geometry" />
        </mxCell>
        <mxCell id="NcNX63bowozpFFL_ACmJ-102" style="edgeStyle=orthogonalEdgeStyle;rounded=0;orthogonalLoop=1;jettySize=auto;html=1;exitX=0.5;exitY=1;exitDx=0;exitDy=0;entryX=0.5;entryY=1;entryDx=0;entryDy=0;entryPerimeter=0;" edge="1" parent="NcNX63bowozpFFL_ACmJ-94" source="NcNX63bowozpFFL_ACmJ-94" target="NcNX63bowozpFFL_ACmJ-97">
          <mxGeometry relative="1" as="geometry" />
        </mxCell>
        <mxCell id="NcNX63bowozpFFL_ACmJ-114" value="Use" style="endArrow=open;endSize=12;dashed=1;html=1;rounded=0;exitX=1;exitY=0.5;exitDx=0;exitDy=0;entryX=1;entryY=0.5;entryDx=0;entryDy=0;" edge="1" parent="NcNX63bowozpFFL_ACmJ-94" source="NcNX63bowozpFFL_ACmJ-115" target="NcNX63bowozpFFL_ACmJ-112">
          <mxGeometry width="160" relative="1" as="geometry">
            <mxPoint x="350" y="310" as="sourcePoint" />
            <mxPoint x="510" y="310" as="targetPoint" />
            <Array as="points">
              <mxPoint x="410" y="360" />
            </Array>
          </mxGeometry>
        </mxCell>
        <mxCell id="NcNX63bowozpFFL_ACmJ-124" value="Use" style="endArrow=open;endSize=12;dashed=1;html=1;rounded=0;exitX=0;exitY=0.5;exitDx=0;exitDy=0;entryX=0;entryY=0.5;entryDx=0;entryDy=0;" edge="1" parent="NcNX63bowozpFFL_ACmJ-94" source="NcNX63bowozpFFL_ACmJ-120" target="NcNX63bowozpFFL_ACmJ-122">
          <mxGeometry width="160" relative="1" as="geometry">
            <mxPoint x="310" y="540" as="sourcePoint" />
            <mxPoint x="470" y="540" as="targetPoint" />
            <Array as="points">
              <mxPoint x="-50" y="580" />
            </Array>
          </mxGeometry>
        </mxCell>
        <mxCell id="NcNX63bowozpFFL_ACmJ-125" value="Use" style="endArrow=open;endSize=12;dashed=1;html=1;rounded=0;exitX=0;exitY=0.5;exitDx=0;exitDy=0;entryX=0;entryY=0.5;entryDx=0;entryDy=0;" edge="1" parent="NcNX63bowozpFFL_ACmJ-94" source="NcNX63bowozpFFL_ACmJ-120" target="NcNX63bowozpFFL_ACmJ-97">
          <mxGeometry width="160" relative="1" as="geometry">
            <mxPoint x="230" y="530" as="sourcePoint" />
            <mxPoint x="390" y="530" as="targetPoint" />
            <Array as="points">
              <mxPoint x="-50" y="600" />
            </Array>
          </mxGeometry>
        </mxCell>
        <mxCell id="NcNX63bowozpFFL_ACmJ-128" value="" style="endArrow=diamondThin;endFill=0;endSize=24;html=1;rounded=0;exitX=0;exitY=0.5;exitDx=0;exitDy=0;entryX=1.008;entryY=0.02;entryDx=0;entryDy=0;entryPerimeter=0;" edge="1" parent="WIyWlLk6GJQsqaUBKTNV-1" source="NcNX63bowozpFFL_ACmJ-74" target="NcNX63bowozpFFL_ACmJ-94">
          <mxGeometry width="160" relative="1" as="geometry">
            <mxPoint x="-243" y="-730" as="sourcePoint" />
            <mxPoint x="-83" y="-730" as="targetPoint" />
          </mxGeometry>
        </mxCell>
        <mxCell id="NcNX63bowozpFFL_ACmJ-129" value="BaseModel" style="swimlane;fontStyle=1;align=center;verticalAlign=top;childLayout=stackLayout;horizontal=1;startSize=26;horizontalStack=0;resizeParent=1;resizeParentMax=0;resizeLast=0;collapsible=1;marginBottom=0;whiteSpace=wrap;html=1;" vertex="1" parent="WIyWlLk6GJQsqaUBKTNV-1">
          <mxGeometry x="-803" y="-1190" width="320" height="150" as="geometry" />
        </mxCell>
        <mxCell id="NcNX63bowozpFFL_ACmJ-130" value="+ controller: BaseController" style="text;strokeColor=none;fillColor=none;align=left;verticalAlign=top;spacingLeft=4;spacingRight=4;overflow=hidden;rotatable=0;points=[[0,0.5],[1,0.5]];portConstraint=eastwest;whiteSpace=wrap;html=1;" vertex="1" parent="NcNX63bowozpFFL_ACmJ-129">
          <mxGeometry y="26" width="320" height="26" as="geometry" />
        </mxCell>
        <mxCell id="NcNX63bowozpFFL_ACmJ-131" value="" style="line;strokeWidth=1;fillColor=none;align=left;verticalAlign=middle;spacingTop=-1;spacingLeft=3;spacingRight=3;rotatable=0;labelPosition=right;points=[];portConstraint=eastwest;strokeColor=inherit;" vertex="1" parent="NcNX63bowozpFFL_ACmJ-129">
          <mxGeometry y="52" width="320" height="8" as="geometry" />
        </mxCell>
        <mxCell id="NcNX63bowozpFFL_ACmJ-133" value="+ BaseModel(BaseController): void" style="text;strokeColor=none;fillColor=none;align=left;verticalAlign=top;spacingLeft=4;spacingRight=4;overflow=hidden;rotatable=0;points=[[0,0.5],[1,0.5]];portConstraint=eastwest;whiteSpace=wrap;html=1;" vertex="1" parent="NcNX63bowozpFFL_ACmJ-129">
          <mxGeometry y="60" width="320" height="30" as="geometry" />
        </mxCell>
        <mxCell id="NcNX63bowozpFFL_ACmJ-134" value="+ BaseModel(): void" style="text;strokeColor=none;fillColor=none;align=left;verticalAlign=top;spacingLeft=4;spacingRight=4;overflow=hidden;rotatable=0;points=[[0,0.5],[1,0.5]];portConstraint=eastwest;whiteSpace=wrap;html=1;" vertex="1" parent="NcNX63bowozpFFL_ACmJ-129">
          <mxGeometry y="90" width="320" height="30" as="geometry" />
        </mxCell>
        <mxCell id="NcNX63bowozpFFL_ACmJ-132" value="&lt;i&gt;+ Init(): void&lt;/i&gt;" style="text;strokeColor=none;fillColor=none;align=left;verticalAlign=top;spacingLeft=4;spacingRight=4;overflow=hidden;rotatable=0;points=[[0,0.5],[1,0.5]];portConstraint=eastwest;whiteSpace=wrap;html=1;" vertex="1" parent="NcNX63bowozpFFL_ACmJ-129">
          <mxGeometry y="120" width="320" height="30" as="geometry" />
        </mxCell>
        <mxCell id="NcNX63bowozpFFL_ACmJ-153" value="&lt;p style=&quot;margin:0px;margin-top:4px;text-align:center;&quot;&gt;&lt;i&gt;&amp;lt;&amp;lt;Interface&amp;gt;&amp;gt;&lt;/i&gt;&lt;br&gt;&lt;b&gt;IBaseView&lt;/b&gt;&lt;/p&gt;&lt;p style=&quot;margin:0px;margin-left:4px;&quot;&gt;ViewId: int&lt;/p&gt;&lt;p style=&quot;margin:0px;margin-left:4px;&quot;&gt;Controller: BaseController&lt;/p&gt;&lt;hr size=&quot;1&quot; style=&quot;border-style:solid;&quot;&gt;&lt;p style=&quot;margin:0px;margin-left:4px;&quot;&gt;+ method1(Type): Type&lt;/p&gt;&lt;p style=&quot;margin: 0px 0px 0px 4px;&quot;&gt;IsInit() : bool&lt;/p&gt;&lt;p style=&quot;margin: 0px 0px 0px 4px;&quot;&gt;IsShow() : bool&lt;/p&gt;&lt;p style=&quot;margin: 0px 0px 0px 4px;&quot;&gt;InitUI() : void&lt;/p&gt;&lt;p style=&quot;margin: 0px 0px 0px 4px;&quot;&gt;InitData(): void&lt;/p&gt;&lt;p style=&quot;margin: 0px 0px 0px 4px;&quot;&gt;Open(params object[]): void&lt;/p&gt;&lt;p style=&quot;margin: 0px 0px 0px 4px;&quot;&gt;Close(params object[]): void&lt;/p&gt;&lt;p style=&quot;margin: 0px 0px 0px 4px;&quot;&gt;DestroyView(): void&lt;/p&gt;&lt;p style=&quot;margin: 0px 0px 0px 4px;&quot;&gt;ApplyFunc(string,params object[]): void&amp;nbsp;&amp;nbsp;&lt;/p&gt;&lt;p style=&quot;margin: 0px 0px 0px 4px;&quot;&gt;ApplyControllerFunc(int, string, params object[]): void&lt;/p&gt;&lt;p style=&quot;margin: 0px 0px 0px 4px;&quot;&gt;SetVisible(bool): void&lt;/p&gt;" style="verticalAlign=top;align=left;overflow=fill;html=1;whiteSpace=wrap;" vertex="1" parent="WIyWlLk6GJQsqaUBKTNV-1">
          <mxGeometry x="-833" y="-1510" width="320" height="240" as="geometry" />
        </mxCell>
        <mxCell id="NcNX63bowozpFFL_ACmJ-156" value="Use" style="endArrow=open;endSize=12;dashed=1;html=1;rounded=0;exitX=0;exitY=0.5;exitDx=0;exitDy=0;" edge="1" parent="WIyWlLk6GJQsqaUBKTNV-1" source="NcNX63bowozpFFL_ACmJ-105" target="NcNX63bowozpFFL_ACmJ-153">
          <mxGeometry width="160" relative="1" as="geometry">
            <mxPoint x="-643" y="-880" as="sourcePoint" />
            <mxPoint x="-483" y="-880" as="targetPoint" />
            <Array as="points">
              <mxPoint x="-923" y="-1040" />
            </Array>
          </mxGeometry>
        </mxCell>
        <mxCell id="NcNX63bowozpFFL_ACmJ-160" value="" style="endArrow=diamondThin;endFill=1;endSize=24;html=1;rounded=0;" edge="1" parent="WIyWlLk6GJQsqaUBKTNV-1" source="NcNX63bowozpFFL_ACmJ-129" target="NcNX63bowozpFFL_ACmJ-94">
          <mxGeometry width="160" relative="1" as="geometry">
            <mxPoint x="-633" y="-940" as="sourcePoint" />
            <mxPoint x="-473" y="-940" as="targetPoint" />
          </mxGeometry>
        </mxCell>
        <mxCell id="NcNX63bowozpFFL_ACmJ-161" value="" style="endArrow=diamondThin;endFill=1;endSize=24;html=1;rounded=0;" edge="1" parent="WIyWlLk6GJQsqaUBKTNV-1" source="NcNX63bowozpFFL_ACmJ-94" target="NcNX63bowozpFFL_ACmJ-129">
          <mxGeometry width="160" relative="1" as="geometry">
            <mxPoint x="-423" y="-1050" as="sourcePoint" />
            <mxPoint x="-263" y="-1050" as="targetPoint" />
          </mxGeometry>
        </mxCell>
        <mxCell id="NcNX63bowozpFFL_ACmJ-168" value="ControllerType" style="swimlane;fontStyle=0;childLayout=stackLayout;horizontal=1;startSize=26;fillColor=none;horizontalStack=0;resizeParent=1;resizeParentMax=0;resizeLast=0;collapsible=1;marginBottom=0;whiteSpace=wrap;html=1;" vertex="1" parent="WIyWlLk6GJQsqaUBKTNV-1">
          <mxGeometry x="-393" y="-790" width="140" height="110" as="geometry" />
        </mxCell>
        <mxCell id="NcNX63bowozpFFL_ACmJ-171" value="&lt;div&gt;GameUI,&lt;/div&gt;&lt;div&gt;Game,&lt;/div&gt;&lt;div&gt;LoadingScene,&lt;/div&gt;&lt;div&gt;Level,&lt;/div&gt;&lt;div&gt;Fight&lt;/div&gt;" style="text;strokeColor=none;fillColor=none;align=left;verticalAlign=top;spacingLeft=4;spacingRight=4;overflow=hidden;rotatable=0;points=[[0,0.5],[1,0.5]];portConstraint=eastwest;whiteSpace=wrap;html=1;" vertex="1" parent="NcNX63bowozpFFL_ACmJ-168">
          <mxGeometry y="26" width="140" height="84" as="geometry" />
        </mxCell>
        <mxCell id="NcNX63bowozpFFL_ACmJ-173" value="Use" style="endArrow=open;endSize=12;dashed=1;html=1;rounded=0;" edge="1" parent="WIyWlLk6GJQsqaUBKTNV-1" source="NcNX63bowozpFFL_ACmJ-76" target="NcNX63bowozpFFL_ACmJ-168">
          <mxGeometry width="160" relative="1" as="geometry">
            <mxPoint x="-483" y="-600" as="sourcePoint" />
            <mxPoint x="-323" y="-600" as="targetPoint" />
          </mxGeometry>
        </mxCell>
        <mxCell id="NcNX63bowozpFFL_ACmJ-174" value="Use" style="endArrow=open;endSize=12;dashed=1;html=1;rounded=0;" edge="1" parent="WIyWlLk6GJQsqaUBKTNV-1" source="NcNX63bowozpFFL_ACmJ-115" target="NcNX63bowozpFFL_ACmJ-168">
          <mxGeometry width="160" relative="1" as="geometry">
            <mxPoint x="-523" y="-620" as="sourcePoint" />
            <mxPoint x="-363" y="-620" as="targetPoint" />
          </mxGeometry>
        </mxCell>
        <mxCell id="NcNX63bowozpFFL_ACmJ-175" value="ViewManager" style="swimlane;fontStyle=1;align=center;verticalAlign=top;childLayout=stackLayout;horizontal=1;startSize=26;horizontalStack=0;resizeParent=1;resizeParentMax=0;resizeLast=0;collapsible=1;marginBottom=0;whiteSpace=wrap;html=1;" vertex="1" parent="WIyWlLk6GJQsqaUBKTNV-1">
          <mxGeometry x="-210" y="-1410" width="310" height="554" as="geometry" />
        </mxCell>
        <mxCell id="NcNX63bowozpFFL_ACmJ-198" value="+ canvasTf: Transform" style="text;strokeColor=none;fillColor=none;align=left;verticalAlign=top;spacingLeft=4;spacingRight=4;overflow=hidden;rotatable=0;points=[[0,0.5],[1,0.5]];portConstraint=eastwest;whiteSpace=wrap;html=1;" vertex="1" parent="NcNX63bowozpFFL_ACmJ-175">
          <mxGeometry y="26" width="310" height="26" as="geometry" />
        </mxCell>
        <mxCell id="NcNX63bowozpFFL_ACmJ-199" value="+ worldCanvasTf: Transform" style="text;strokeColor=none;fillColor=none;align=left;verticalAlign=top;spacingLeft=4;spacingRight=4;overflow=hidden;rotatable=0;points=[[0,0.5],[1,0.5]];portConstraint=eastwest;whiteSpace=wrap;html=1;" vertex="1" parent="NcNX63bowozpFFL_ACmJ-175">
          <mxGeometry y="52" width="310" height="26" as="geometry" />
        </mxCell>
        <mxCell id="NcNX63bowozpFFL_ACmJ-201" value="&amp;nbsp;_opens: Dictionary&amp;lt;int, IBaseView&amp;gt;" style="text;strokeColor=none;fillColor=none;align=left;verticalAlign=top;spacingLeft=4;spacingRight=4;overflow=hidden;rotatable=0;points=[[0,0.5],[1,0.5]];portConstraint=eastwest;whiteSpace=wrap;html=1;" vertex="1" parent="NcNX63bowozpFFL_ACmJ-175">
          <mxGeometry y="78" width="310" height="26" as="geometry" />
        </mxCell>
        <mxCell id="NcNX63bowozpFFL_ACmJ-202" value="&amp;nbsp;_viewCache: Dictionary&amp;lt;int, IBaseView&amp;gt;" style="text;strokeColor=none;fillColor=none;align=left;verticalAlign=top;spacingLeft=4;spacingRight=4;overflow=hidden;rotatable=0;points=[[0,0.5],[1,0.5]];portConstraint=eastwest;whiteSpace=wrap;html=1;" vertex="1" parent="NcNX63bowozpFFL_ACmJ-175">
          <mxGeometry y="104" width="310" height="26" as="geometry" />
        </mxCell>
        <mxCell id="NcNX63bowozpFFL_ACmJ-176" value="&amp;nbsp;_views: Dictionary&amp;lt;int, ViewInfo&amp;gt;" style="text;strokeColor=none;fillColor=none;align=left;verticalAlign=top;spacingLeft=4;spacingRight=4;overflow=hidden;rotatable=0;points=[[0,0.5],[1,0.5]];portConstraint=eastwest;whiteSpace=wrap;html=1;" vertex="1" parent="NcNX63bowozpFFL_ACmJ-175">
          <mxGeometry y="130" width="310" height="26" as="geometry" />
        </mxCell>
        <mxCell id="NcNX63bowozpFFL_ACmJ-177" value="" style="line;strokeWidth=1;fillColor=none;align=left;verticalAlign=middle;spacingTop=-1;spacingLeft=3;spacingRight=3;rotatable=0;labelPosition=right;points=[];portConstraint=eastwest;strokeColor=inherit;" vertex="1" parent="NcNX63bowozpFFL_ACmJ-175">
          <mxGeometry y="156" width="310" height="8" as="geometry" />
        </mxCell>
        <mxCell id="NcNX63bowozpFFL_ACmJ-203" value="+ ViewManager(): void" style="text;strokeColor=none;fillColor=none;align=left;verticalAlign=top;spacingLeft=4;spacingRight=4;overflow=hidden;rotatable=0;points=[[0,0.5],[1,0.5]];portConstraint=eastwest;whiteSpace=wrap;html=1;" vertex="1" parent="NcNX63bowozpFFL_ACmJ-175">
          <mxGeometry y="164" width="310" height="26" as="geometry" />
        </mxCell>
        <mxCell id="NcNX63bowozpFFL_ACmJ-205" value="+ Register(int, ViewInfo): void" style="text;strokeColor=none;fillColor=none;align=left;verticalAlign=top;spacingLeft=4;spacingRight=4;overflow=hidden;rotatable=0;points=[[0,0.5],[1,0.5]];portConstraint=eastwest;whiteSpace=wrap;html=1;" vertex="1" parent="NcNX63bowozpFFL_ACmJ-175">
          <mxGeometry y="190" width="310" height="26" as="geometry" />
        </mxCell>
        <mxCell id="NcNX63bowozpFFL_ACmJ-206" value="+ Register(ViewType, ViewInfo): void" style="text;strokeColor=none;fillColor=none;align=left;verticalAlign=top;spacingLeft=4;spacingRight=4;overflow=hidden;rotatable=0;points=[[0,0.5],[1,0.5]];portConstraint=eastwest;whiteSpace=wrap;html=1;" vertex="1" parent="NcNX63bowozpFFL_ACmJ-175">
          <mxGeometry y="216" width="310" height="26" as="geometry" />
        </mxCell>
        <mxCell id="NcNX63bowozpFFL_ACmJ-207" value="+ UnRegister(int): void" style="text;strokeColor=none;fillColor=none;align=left;verticalAlign=top;spacingLeft=4;spacingRight=4;overflow=hidden;rotatable=0;points=[[0,0.5],[1,0.5]];portConstraint=eastwest;whiteSpace=wrap;html=1;" vertex="1" parent="NcNX63bowozpFFL_ACmJ-175">
          <mxGeometry y="242" width="310" height="26" as="geometry" />
        </mxCell>
        <mxCell id="NcNX63bowozpFFL_ACmJ-208" value="+ RemoveView(int): void" style="text;strokeColor=none;fillColor=none;align=left;verticalAlign=top;spacingLeft=4;spacingRight=4;overflow=hidden;rotatable=0;points=[[0,0.5],[1,0.5]];portConstraint=eastwest;whiteSpace=wrap;html=1;" vertex="1" parent="NcNX63bowozpFFL_ACmJ-175">
          <mxGeometry y="268" width="310" height="26" as="geometry" />
        </mxCell>
        <mxCell id="NcNX63bowozpFFL_ACmJ-209" value="+ RemoveViewByController(BaseController): void" style="text;strokeColor=none;fillColor=none;align=left;verticalAlign=top;spacingLeft=4;spacingRight=4;overflow=hidden;rotatable=0;points=[[0,0.5],[1,0.5]];portConstraint=eastwest;whiteSpace=wrap;html=1;" vertex="1" parent="NcNX63bowozpFFL_ACmJ-175">
          <mxGeometry y="294" width="310" height="26" as="geometry" />
        </mxCell>
        <mxCell id="NcNX63bowozpFFL_ACmJ-210" value="+ IsOpen(int): bool" style="text;strokeColor=none;fillColor=none;align=left;verticalAlign=top;spacingLeft=4;spacingRight=4;overflow=hidden;rotatable=0;points=[[0,0.5],[1,0.5]];portConstraint=eastwest;whiteSpace=wrap;html=1;" vertex="1" parent="NcNX63bowozpFFL_ACmJ-175">
          <mxGeometry y="320" width="310" height="26" as="geometry" />
        </mxCell>
        <mxCell id="NcNX63bowozpFFL_ACmJ-211" value="+ GetView(int): IBaseView" style="text;strokeColor=none;fillColor=none;align=left;verticalAlign=top;spacingLeft=4;spacingRight=4;overflow=hidden;rotatable=0;points=[[0,0.5],[1,0.5]];portConstraint=eastwest;whiteSpace=wrap;html=1;" vertex="1" parent="NcNX63bowozpFFL_ACmJ-175">
          <mxGeometry y="346" width="310" height="26" as="geometry" />
        </mxCell>
        <mxCell id="NcNX63bowozpFFL_ACmJ-212" value="+ T GetView &amp;lt;T&amp;gt;(int key) where T : class, IBaseView" style="text;strokeColor=none;fillColor=none;align=left;verticalAlign=top;spacingLeft=4;spacingRight=4;overflow=hidden;rotatable=0;points=[[0,0.5],[1,0.5]];portConstraint=eastwest;whiteSpace=wrap;html=1;" vertex="1" parent="NcNX63bowozpFFL_ACmJ-175">
          <mxGeometry y="372" width="310" height="26" as="geometry" />
        </mxCell>
        <mxCell id="NcNX63bowozpFFL_ACmJ-213" value="+ Destroy(int) : void" style="text;strokeColor=none;fillColor=none;align=left;verticalAlign=top;spacingLeft=4;spacingRight=4;overflow=hidden;rotatable=0;points=[[0,0.5],[1,0.5]];portConstraint=eastwest;whiteSpace=wrap;html=1;" vertex="1" parent="NcNX63bowozpFFL_ACmJ-175">
          <mxGeometry y="398" width="310" height="26" as="geometry" />
        </mxCell>
        <mxCell id="NcNX63bowozpFFL_ACmJ-216" value="+ Close(int,params object[]) : void" style="text;strokeColor=none;fillColor=none;align=left;verticalAlign=top;spacingLeft=4;spacingRight=4;overflow=hidden;rotatable=0;points=[[0,0.5],[1,0.5]];portConstraint=eastwest;whiteSpace=wrap;html=1;" vertex="1" parent="NcNX63bowozpFFL_ACmJ-175">
          <mxGeometry y="424" width="310" height="26" as="geometry" />
        </mxCell>
        <mxCell id="NcNX63bowozpFFL_ACmJ-217" value="+ CloseAll() : void" style="text;strokeColor=none;fillColor=none;align=left;verticalAlign=top;spacingLeft=4;spacingRight=4;overflow=hidden;rotatable=0;points=[[0,0.5],[1,0.5]];portConstraint=eastwest;whiteSpace=wrap;html=1;" vertex="1" parent="NcNX63bowozpFFL_ACmJ-175">
          <mxGeometry y="450" width="310" height="26" as="geometry" />
        </mxCell>
        <mxCell id="NcNX63bowozpFFL_ACmJ-218" value="+ Open(ViewType,params object[]) : void" style="text;strokeColor=none;fillColor=none;align=left;verticalAlign=top;spacingLeft=4;spacingRight=4;overflow=hidden;rotatable=0;points=[[0,0.5],[1,0.5]];portConstraint=eastwest;whiteSpace=wrap;html=1;" vertex="1" parent="NcNX63bowozpFFL_ACmJ-175">
          <mxGeometry y="476" width="310" height="26" as="geometry" />
        </mxCell>
        <mxCell id="NcNX63bowozpFFL_ACmJ-219" value="+ Open(int,params object[]) : void" style="text;strokeColor=none;fillColor=none;align=left;verticalAlign=top;spacingLeft=4;spacingRight=4;overflow=hidden;rotatable=0;points=[[0,0.5],[1,0.5]];portConstraint=eastwest;whiteSpace=wrap;html=1;" vertex="1" parent="NcNX63bowozpFFL_ACmJ-175">
          <mxGeometry y="502" width="310" height="26" as="geometry" />
        </mxCell>
        <mxCell id="NcNX63bowozpFFL_ACmJ-178" value="+ ShowHitNum(string,Color,Vector3) : void" style="text;strokeColor=none;fillColor=none;align=left;verticalAlign=top;spacingLeft=4;spacingRight=4;overflow=hidden;rotatable=0;points=[[0,0.5],[1,0.5]];portConstraint=eastwest;whiteSpace=wrap;html=1;" vertex="1" parent="NcNX63bowozpFFL_ACmJ-175">
          <mxGeometry y="528" width="310" height="26" as="geometry" />
        </mxCell>
        <mxCell id="NcNX63bowozpFFL_ACmJ-223" value="Use" style="endArrow=open;endSize=12;dashed=1;html=1;rounded=0;exitX=0;exitY=0.5;exitDx=0;exitDy=0;entryX=0;entryY=0.5;entryDx=0;entryDy=0;" edge="1" parent="NcNX63bowozpFFL_ACmJ-175" source="NcNX63bowozpFFL_ACmJ-205" target="NcNX63bowozpFFL_ACmJ-206">
          <mxGeometry width="160" relative="1" as="geometry">
            <mxPoint x="-70" y="280" as="sourcePoint" />
            <mxPoint x="90" y="280" as="targetPoint" />
            <Array as="points">
              <mxPoint x="-20" y="220" />
            </Array>
          </mxGeometry>
        </mxCell>
        <mxCell id="NcNX63bowozpFFL_ACmJ-225" value="Use" style="endArrow=open;endSize=12;dashed=1;html=1;rounded=0;exitX=0;exitY=0.5;exitDx=0;exitDy=0;entryX=0;entryY=0.5;entryDx=0;entryDy=0;" edge="1" parent="NcNX63bowozpFFL_ACmJ-175" source="NcNX63bowozpFFL_ACmJ-209" target="NcNX63bowozpFFL_ACmJ-208">
          <mxGeometry width="160" relative="1" as="geometry">
            <mxPoint x="-60" y="360" as="sourcePoint" />
            <mxPoint x="100" y="360" as="targetPoint" />
            <Array as="points">
              <mxPoint x="-20" y="300" />
            </Array>
          </mxGeometry>
        </mxCell>
        <mxCell id="NcNX63bowozpFFL_ACmJ-228" value="Use" style="endArrow=open;endSize=12;dashed=1;html=1;rounded=0;exitX=0;exitY=0.5;exitDx=0;exitDy=0;entryX=0.009;entryY=0.641;entryDx=0;entryDy=0;entryPerimeter=0;" edge="1" parent="NcNX63bowozpFFL_ACmJ-175" source="NcNX63bowozpFFL_ACmJ-213" target="NcNX63bowozpFFL_ACmJ-207">
          <mxGeometry width="160" relative="1" as="geometry">
            <mxPoint x="-30" y="310" as="sourcePoint" />
            <mxPoint x="130" y="310" as="targetPoint" />
            <Array as="points">
              <mxPoint x="-30" y="340" />
            </Array>
          </mxGeometry>
        </mxCell>
        <mxCell id="NcNX63bowozpFFL_ACmJ-231" value="Use" style="endArrow=open;endSize=12;dashed=1;html=1;rounded=0;exitX=-0.002;exitY=0.702;exitDx=0;exitDy=0;exitPerimeter=0;entryX=0;entryY=0.5;entryDx=0;entryDy=0;" edge="1" parent="NcNX63bowozpFFL_ACmJ-175" source="NcNX63bowozpFFL_ACmJ-216" target="NcNX63bowozpFFL_ACmJ-210">
          <mxGeometry width="160" relative="1" as="geometry">
            <mxPoint x="-50" y="370" as="sourcePoint" />
            <mxPoint x="110" y="370" as="targetPoint" />
            <Array as="points">
              <mxPoint x="-30" y="390" />
            </Array>
          </mxGeometry>
        </mxCell>
        <mxCell id="NcNX63bowozpFFL_ACmJ-237" value="Use" style="endArrow=open;endSize=12;dashed=1;html=1;rounded=0;exitX=0;exitY=0.5;exitDx=0;exitDy=0;entryX=0;entryY=0.5;entryDx=0;entryDy=0;" edge="1" parent="NcNX63bowozpFFL_ACmJ-175" source="NcNX63bowozpFFL_ACmJ-217" target="NcNX63bowozpFFL_ACmJ-216">
          <mxGeometry width="160" relative="1" as="geometry">
            <mxPoint x="70" y="400" as="sourcePoint" />
            <mxPoint x="230" y="400" as="targetPoint" />
            <Array as="points">
              <mxPoint x="-30" y="450" />
            </Array>
          </mxGeometry>
        </mxCell>
        <mxCell id="NcNX63bowozpFFL_ACmJ-239" value="Use" style="endArrow=open;endSize=12;dashed=1;html=1;rounded=0;exitX=0;exitY=0.5;exitDx=0;exitDy=0;entryX=0;entryY=0.5;entryDx=0;entryDy=0;" edge="1" parent="NcNX63bowozpFFL_ACmJ-175" source="NcNX63bowozpFFL_ACmJ-218" target="NcNX63bowozpFFL_ACmJ-219">
          <mxGeometry width="160" relative="1" as="geometry">
            <mxPoint x="70" y="430" as="sourcePoint" />
            <mxPoint x="230" y="430" as="targetPoint" />
            <Array as="points">
              <mxPoint x="-30" y="500" />
            </Array>
          </mxGeometry>
        </mxCell>
        <mxCell id="NcNX63bowozpFFL_ACmJ-183" value="ViewInfo" style="swimlane;fontStyle=1;align=center;verticalAlign=top;childLayout=stackLayout;horizontal=1;startSize=26;horizontalStack=0;resizeParent=1;resizeParentMax=0;resizeLast=0;collapsible=1;marginBottom=0;whiteSpace=wrap;html=1;" vertex="1" parent="WIyWlLk6GJQsqaUBKTNV-1">
          <mxGeometry x="-414" y="-1320" width="160" height="130" as="geometry" />
        </mxCell>
        <mxCell id="NcNX63bowozpFFL_ACmJ-187" value="+ parenTf: Transform" style="text;strokeColor=none;fillColor=none;align=left;verticalAlign=top;spacingLeft=4;spacingRight=4;overflow=hidden;rotatable=0;points=[[0,0.5],[1,0.5]];portConstraint=eastwest;whiteSpace=wrap;html=1;" vertex="1" parent="NcNX63bowozpFFL_ACmJ-183">
          <mxGeometry y="26" width="160" height="26" as="geometry" />
        </mxCell>
        <mxCell id="NcNX63bowozpFFL_ACmJ-188" value="+ PrefabName: string" style="text;strokeColor=none;fillColor=none;align=left;verticalAlign=top;spacingLeft=4;spacingRight=4;overflow=hidden;rotatable=0;points=[[0,0.5],[1,0.5]];portConstraint=eastwest;whiteSpace=wrap;html=1;" vertex="1" parent="NcNX63bowozpFFL_ACmJ-183">
          <mxGeometry y="52" width="160" height="26" as="geometry" />
        </mxCell>
        <mxCell id="NcNX63bowozpFFL_ACmJ-184" value="+ controller: BaseController" style="text;strokeColor=none;fillColor=none;align=left;verticalAlign=top;spacingLeft=4;spacingRight=4;overflow=hidden;rotatable=0;points=[[0,0.5],[1,0.5]];portConstraint=eastwest;whiteSpace=wrap;html=1;" vertex="1" parent="NcNX63bowozpFFL_ACmJ-183">
          <mxGeometry y="78" width="160" height="26" as="geometry" />
        </mxCell>
        <mxCell id="NcNX63bowozpFFL_ACmJ-197" value="+ Sorting_Order: int" style="text;strokeColor=none;fillColor=none;align=left;verticalAlign=top;spacingLeft=4;spacingRight=4;overflow=hidden;rotatable=0;points=[[0,0.5],[1,0.5]];portConstraint=eastwest;whiteSpace=wrap;html=1;" vertex="1" parent="NcNX63bowozpFFL_ACmJ-183">
          <mxGeometry y="104" width="160" height="26" as="geometry" />
        </mxCell>
        <mxCell id="NcNX63bowozpFFL_ACmJ-192" value="" style="endArrow=diamondThin;endFill=1;endSize=24;html=1;rounded=0;" edge="1" parent="WIyWlLk6GJQsqaUBKTNV-1" source="NcNX63bowozpFFL_ACmJ-184" target="NcNX63bowozpFFL_ACmJ-94">
          <mxGeometry width="160" relative="1" as="geometry">
            <mxPoint x="-100" y="-240" as="sourcePoint" />
            <mxPoint x="60" y="-240" as="targetPoint" />
          </mxGeometry>
        </mxCell>
        <mxCell id="NcNX63bowozpFFL_ACmJ-215" value="" style="endArrow=diamondThin;endFill=0;endSize=24;html=1;rounded=0;" edge="1" parent="WIyWlLk6GJQsqaUBKTNV-1" source="NcNX63bowozpFFL_ACmJ-175" target="NcNX63bowozpFFL_ACmJ-153">
          <mxGeometry width="160" relative="1" as="geometry">
            <mxPoint x="30" y="-1200" as="sourcePoint" />
            <mxPoint x="190" y="-1200" as="targetPoint" />
          </mxGeometry>
        </mxCell>
        <mxCell id="NcNX63bowozpFFL_ACmJ-222" value="Use" style="endArrow=open;endSize=12;dashed=1;html=1;rounded=0;" edge="1" parent="WIyWlLk6GJQsqaUBKTNV-1" source="NcNX63bowozpFFL_ACmJ-203" target="NcNX63bowozpFFL_ACmJ-183">
          <mxGeometry width="160" relative="1" as="geometry">
            <mxPoint x="-260" y="-1120" as="sourcePoint" />
            <mxPoint x="-100" y="-1120" as="targetPoint" />
          </mxGeometry>
        </mxCell>
        <mxCell id="NcNX63bowozpFFL_ACmJ-230" value="Use" style="endArrow=open;endSize=12;dashed=1;html=1;rounded=0;exitX=0;exitY=0.5;exitDx=0;exitDy=0;" edge="1" parent="WIyWlLk6GJQsqaUBKTNV-1" source="NcNX63bowozpFFL_ACmJ-213" target="NcNX63bowozpFFL_ACmJ-153">
          <mxGeometry width="160" relative="1" as="geometry">
            <mxPoint x="-430" y="-1180" as="sourcePoint" />
            <mxPoint x="-270" y="-1180" as="targetPoint" />
          </mxGeometry>
        </mxCell>
        <mxCell id="NcNX63bowozpFFL_ACmJ-233" value="Use" style="endArrow=open;endSize=12;dashed=1;html=1;rounded=0;exitX=0;exitY=0.5;exitDx=0;exitDy=0;" edge="1" parent="WIyWlLk6GJQsqaUBKTNV-1" source="NcNX63bowozpFFL_ACmJ-216" target="NcNX63bowozpFFL_ACmJ-153">
          <mxGeometry width="160" relative="1" as="geometry">
            <mxPoint x="-270" y="-1030" as="sourcePoint" />
            <mxPoint x="-110" y="-1030" as="targetPoint" />
          </mxGeometry>
        </mxCell>
        <mxCell id="NcNX63bowozpFFL_ACmJ-234" value="Use" style="endArrow=open;endSize=12;dashed=1;html=1;rounded=0;exitX=0;exitY=0.5;exitDx=0;exitDy=0;entryX=1;entryY=0.5;entryDx=0;entryDy=0;" edge="1" parent="WIyWlLk6GJQsqaUBKTNV-1" source="NcNX63bowozpFFL_ACmJ-216" target="NcNX63bowozpFFL_ACmJ-107">
          <mxGeometry width="160" relative="1" as="geometry">
            <mxPoint x="-270" y="-1090" as="sourcePoint" />
            <mxPoint x="-110" y="-1090" as="targetPoint" />
          </mxGeometry>
        </mxCell>
        <mxCell id="NcNX63bowozpFFL_ACmJ-240" value="Use" style="endArrow=open;endSize=12;dashed=1;html=1;rounded=0;" edge="1" parent="WIyWlLk6GJQsqaUBKTNV-1" target="NcNX63bowozpFFL_ACmJ-153">
          <mxGeometry width="160" relative="1" as="geometry">
            <mxPoint x="-210" y="-890" as="sourcePoint" />
            <mxPoint x="-230" y="-1060" as="targetPoint" />
          </mxGeometry>
        </mxCell>
        <mxCell id="NcNX63bowozpFFL_ACmJ-241" value="ViewType" style="swimlane;fontStyle=1;align=center;verticalAlign=top;childLayout=stackLayout;horizontal=1;startSize=26;horizontalStack=0;resizeParent=1;resizeParentMax=0;resizeLast=0;collapsible=1;marginBottom=0;whiteSpace=wrap;html=1;" vertex="1" parent="WIyWlLk6GJQsqaUBKTNV-1">
          <mxGeometry x="-414" y="-1600" width="160" height="250" as="geometry" />
        </mxCell>
        <mxCell id="NcNX63bowozpFFL_ACmJ-242" value="&lt;div&gt;StartView,&lt;/div&gt;&lt;div&gt;SetView,&lt;/div&gt;&lt;div&gt;MessageView,&lt;/div&gt;&lt;div&gt;LoadingView,&lt;/div&gt;&lt;div&gt;SelectLevelView,&lt;/div&gt;&lt;div&gt;FightView,&lt;/div&gt;&lt;div&gt;FightSelectHeroView,&lt;/div&gt;&lt;div&gt;DragHeroView,&lt;/div&gt;&lt;div&gt;TipView,&lt;/div&gt;&lt;div&gt;HeroDesView,&lt;/div&gt;&lt;div&gt;EnemyDesView,&lt;/div&gt;&lt;div&gt;SelectOptionView,&lt;/div&gt;&lt;div&gt;FightOptionDesView,&lt;/div&gt;&lt;div&gt;WinView,&lt;/div&gt;&lt;div&gt;LossView&lt;/div&gt;" style="text;strokeColor=none;fillColor=none;align=left;verticalAlign=top;spacingLeft=4;spacingRight=4;overflow=hidden;rotatable=0;points=[[0,0.5],[1,0.5]];portConstraint=eastwest;whiteSpace=wrap;html=1;" vertex="1" parent="NcNX63bowozpFFL_ACmJ-241">
          <mxGeometry y="26" width="160" height="224" as="geometry" />
        </mxCell>
        <mxCell id="NcNX63bowozpFFL_ACmJ-245" value="Use" style="endArrow=open;endSize=12;dashed=1;html=1;rounded=0;exitX=0;exitY=0.5;exitDx=0;exitDy=0;" edge="1" parent="WIyWlLk6GJQsqaUBKTNV-1" source="NcNX63bowozpFFL_ACmJ-219" target="NcNX63bowozpFFL_ACmJ-242">
          <mxGeometry width="160" relative="1" as="geometry">
            <mxPoint x="-270" y="-1070" as="sourcePoint" />
            <mxPoint x="-110" y="-1070" as="targetPoint" />
          </mxGeometry>
        </mxCell>
        <mxCell id="NcNX63bowozpFFL_ACmJ-246" value="Use" style="endArrow=open;endSize=12;dashed=1;html=1;rounded=0;exitX=0;exitY=0.5;exitDx=0;exitDy=0;entryX=1;entryY=0.5;entryDx=0;entryDy=0;" edge="1" parent="WIyWlLk6GJQsqaUBKTNV-1" source="NcNX63bowozpFFL_ACmJ-219" target="NcNX63bowozpFFL_ACmJ-106">
          <mxGeometry width="160" relative="1" as="geometry">
            <mxPoint x="-240" y="-1060" as="sourcePoint" />
            <mxPoint x="-80" y="-1060" as="targetPoint" />
          </mxGeometry>
        </mxCell>
      </root>
    </mxGraphModel>
  </diagram>
</mxfile>
